<svg width="48" height="48" viewBox="0 0 48 48" fill="none" xmlns="http://www.w3.org/2000/svg">
<path d="M16.2 26.68L7.82 18.32C6.3217 16.8174 5.48032 14.782 5.48032 12.66C5.48032 10.538 6.3217 8.50262 7.82 7L21.86 21L16.2 26.68ZM26.82 26L40.58 39.76L37.76 42.58L24 28.82L10.24 42.58L7.42 39.76L26.72 20.44L26.32 20C25.9493 19.6319 25.6551 19.1941 25.4544 18.7119C25.2536 18.2296 25.1503 17.7124 25.1503 17.19C25.1503 16.6676 25.2536 16.1504 25.4544 15.6681C25.6551 15.1859 25.9493 14.7481 26.32 14.38L35 5.64L36.86 7.48L30.38 14L32.3 15.88L38.78 9.38L40.62 11.22L34.12 17.7L36 19.62L42.52 13.12L44.36 15L35.62 23.68C34.06 25.24 31.54 25.24 30 23.68L29.56 23.28L26.82 26Z" fill="#FF498B"/>
</svg>
