<svg width="48" height="48" viewBox="0 0 48 48" fill="none" xmlns="http://www.w3.org/2000/svg">
<path d="M40 20V14C40 12.9391 39.5786 11.9217 38.8284 11.1716C38.0783 10.4214 37.0609 10 36 10H12C10.9391 10 9.92172 10.4214 9.17157 11.1716C8.42143 11.9217 8 12.9391 8 14V20C6.93913 20 5.92172 20.4214 5.17157 21.1716C4.42143 21.9217 4 22.9391 4 24V34H6.66L8 38H10L11.34 34H36.66L38 38H40L41.34 34H44V24C44 22.9391 43.5786 21.9217 42.8284 21.1716C42.0783 20.4214 41.0609 20 40 20ZM26 14H36V20H26V14ZM12 14H22V20H12V14ZM40 30H8V24H40V30Z" fill="#FF498B"/>
</svg>
