<svg width="48" height="48" viewBox="0 0 48 48" fill="none" xmlns="http://www.w3.org/2000/svg">
<g clip-path="url(#clip0_26_92)">
<path d="M13.18 1.31999C17.86 -2.3 22.94 2.12 24.08 9C24.94 9 25.78 9.24 26.54 9.68C27.58 8.48 28.5 6.83999 28.14 4.99999C27.3 0.699995 32.12 -2.78 36.7 3.16C40.32 7.83999 35.9 12.92 29 14.06C29 14.92 28.78 15.78 28.32 16.54C29.52 17.56 31.16 18.48 33 18.12C37.26 17.28 40.76 22.08 34.82 26.68C30.14 30.3 25.06 25.88 23.92 19C23.06 19 22.22 18.74 21.48 18.3C20.44 19.5 19.5 21.16 19.86 23C20.7 27.28 15.88 30.78 11.3 24.84C7.66 20.14 12.1 15.06 19 13.94C19 13.08 19.26 12.24 19.7 11.48C18.5 10.46 16.86 9.52 15 9.88C10.74 10.72 7.24 5.91999 13.18 1.31999ZM10 32H14C15.0609 32 16.0783 32.4214 16.8284 33.1716C17.5786 33.9217 18 34.9391 18 36V48H14V44H10V48H6V36C6 34.9391 6.42143 33.9217 7.17157 33.1716C7.92172 32.4214 8.93913 32 10 32ZM10 36V40H14V36H10ZM25.86 32H30L24.14 48H20L25.86 32ZM36 32H42V36H36V44H42V48H36C34.9391 48 33.9217 47.5786 33.1716 46.8284C32.4214 46.0783 32 45.0609 32 44V36C32 34.9391 32.4214 33.9217 33.1716 33.1716C33.9217 32.4214 34.9391 32 36 32Z" fill="#FF498B"/>
</g>
<defs>
<clipPath id="clip0_26_92">
<rect width="48" height="48" fill="white"/>
</clipPath>
</defs>
</svg>
