<svg width="48" height="48" viewBox="0 0 48 48" fill="none" xmlns="http://www.w3.org/2000/svg">
<path d="M24 4C30.62 4 36 9.32 36 15.9C36 24.82 24 38 24 38C24 38 12 24.82 12 15.9C12 9.32 17.38 4 24 4ZM24 12C22.9391 12 21.9217 12.4214 21.1716 13.1716C20.4214 13.9217 20 14.9391 20 16C20 17.0609 20.4214 18.0783 21.1716 18.8284C21.9217 19.5786 22.9391 20 24 20C25.0609 20 26.0783 19.5786 26.8284 18.8284C27.5786 18.0783 28 17.0609 28 16C28 14.9391 27.5786 13.9217 26.8284 13.1716C26.0783 12.4214 25.0609 12 24 12V12ZM40 38C40 42.42 32.84 46 24 46C15.16 46 8 42.42 8 38C8 35.42 10.44 33.12 14.22 31.66L15.5 33.48C13.34 34.38 12 35.62 12 37C12 39.76 17.38 42 24 42C30.62 42 36 39.76 36 37C36 35.62 34.66 34.38 32.5 33.48L33.78 31.66C37.56 33.12 40 35.42 40 38Z" fill="#FF498B"/>
</svg>
