<svg width="48" height="48" viewBox="0 0 48 48" fill="none" xmlns="http://www.w3.org/2000/svg">
<path d="M16.32 6L13.5 8.82L18.68 14H8C5.78 14 4 15.78 4 18V38C4 40.22 5.78 42 8 42H40C42.22 42 44 40.22 44 38V18C44 15.78 42.22 14 40 14H29.32L34.5 8.82L31.68 6L24 13.68L16.32 6ZM8 18H34V38H8V18ZM39 18C39.5304 18 40.0391 18.2107 40.4142 18.5858C40.7893 18.9609 41 19.4696 41 20C41 20.5304 40.7893 21.0391 40.4142 21.4142C40.0391 21.7893 39.5304 22 39 22C38.4696 22 37.9609 21.7893 37.5858 21.4142C37.2107 21.0391 37 20.5304 37 20C37 19.4696 37.2107 18.9609 37.5858 18.5858C37.9609 18.2107 38.4696 18 39 18ZM39 24C39.5304 24 40.0391 24.2107 40.4142 24.5858C40.7893 24.9609 41 25.4696 41 26C41 26.5304 40.7893 27.0391 40.4142 27.4142C40.0391 27.7893 39.5304 28 39 28C38.4696 28 37.9609 27.7893 37.5858 27.4142C37.2107 27.0391 37 26.5304 37 26C37 25.4696 37.2107 24.9609 37.5858 24.5858C37.9609 24.2107 38.4696 24 39 24Z" fill="#FF498B"/>
</svg>
