<svg width="48" height="48" viewBox="0 0 48 48" fill="none" xmlns="http://www.w3.org/2000/svg">
<path d="M40.4 11.8L42 10.2C39.2 7.4 35.6 6 32 6C28.4 6 24.8 7.4 22 10.2L23.6 11.8C26 9.6 29 8.4 32 8.4C35 8.4 38 9.6 40.4 11.8ZM38.6 13.4C36.8 11.6 34.4 10.6 32 10.6C29.6 10.6 27.2 11.6 25.4 13.4L27 15C28.4 13.6 30.2 13 32 13C33.8 13 35.6 13.6 37 15L38.6 13.4ZM38 26H34V18H30V26H10C8.93913 26 7.92172 26.4214 7.17157 27.1716C6.42143 27.9217 6 28.9391 6 30V38C6 39.0609 6.42143 40.0783 7.17157 40.8284C7.92172 41.5786 8.93913 42 10 42H38C39.0609 42 40.0783 41.5786 40.8284 40.8284C41.5786 40.0783 42 39.0609 42 38V30C42 28.9391 41.5786 27.9217 40.8284 27.1716C40.0783 26.4214 39.0609 26 38 26ZM16 36H12V32H16V36ZM23 36H19V32H23V36ZM30 36H26V32H30V36Z" fill="#FF498B"/>
</svg>
