<svg width="36" height="36" viewBox="0 0 36 36" fill="none" xmlns="http://www.w3.org/2000/svg">
<path d="M17.4815 27.1305C17.8001 26.9373 18.1999 26.9373 18.5185 27.1305L26.1676 31.7693C26.9244 32.2282 27.8604 31.5502 27.6602 30.6881L25.627 21.9307C25.5433 21.5703 25.6655 21.1932 25.9445 20.9502L32.7226 15.0503C33.3883 14.4708 33.0317 13.3759 32.1524 13.2997L23.2369 12.5273C22.8676 12.4953 22.5463 12.2616 22.402 11.9202L18.9212 3.68055C18.5771 2.86608 17.4229 2.86608 17.0788 3.68055L13.598 11.9202C13.4537 12.2616 13.1324 12.4953 12.7631 12.5273L3.84468 13.3C2.96581 13.3762 2.60889 14.4702 3.27376 15.05L10.0405 20.9508C10.3187 21.1935 10.4407 21.5697 10.3577 21.9294L8.33567 30.6917C8.1368 31.5535 9.07237 32.2302 9.8286 31.7716L17.4815 27.1305Z" fill="#FFCC47"/>
</svg>
